<svg xmlns="http://www.w3.org/2000/svg" width="1024" height="1024" viewBox="0 0 1024 1024"><path fill="#000" fill-rule="evenodd" d="M388.384 94.765c-.613.404-2.085 2.647-3.27 4.985s-2.44 4.25-2.788 4.25-2.303-1.808-4.343-4.018c-3.199-3.466-4.038-3.892-6.096-3.096-1.313.507-2.289 1.372-2.169 1.923s2.424 3.915 5.119 7.475c3.599 4.755 5.09 7.743 5.616 11.254 1.046 6.975 2.22 9.462 4.463 9.462 1.081 0 2.195-.371 2.475-.824s-.477-.791-1.683-.75c-1.763.06-2.367-.708-3.084-3.926-.49-2.2-1.272-5.575-1.738-7.5s-2.88-5.972-5.366-8.993-4.52-5.834-4.52-6.25c0-1.977 4.113-.408 6.535 2.493 4.469 5.353 5.13 5.345 7.886-.094 2.249-4.439 5.08-6.988 6.35-5.718.267.266-.982 4.125-2.776 8.574-3.104 7.701-3.209 8.386-2.196 14.288l1.065 6.2-.488-6.532c-.429-5.733-.115-7.363 2.568-13.343 1.681-3.746 3.056-7.669 3.056-8.718 0-1.944-2.47-2.555-4.616-1.142m96.091 7.275c-1.318 2.133-9.475 25.406-9.475 27.034 0 1.727 2.546 2.922 4.689 2.2.654-.22 2.397-4.084 3.874-8.587s3.035-8.57 3.463-9.039 1.102 3.039 1.498 7.795c.396 4.755.933 8.433 1.194 8.173.26-.261.152-4.331-.241-9.045-.493-5.926-1.109-8.571-1.994-8.571-1.016 0-4.85 9.096-7.059 16.75-.199.688-1.275 1.25-2.393 1.25s-2.039-.562-2.048-1.25c-.039-2.929 9.63-26.716 11.017-27.101 1.176-.327 1.135-.442-.191-.533-.93-.064-1.98.352-2.334.924m6.154 1.047c.62.777 1.333 5.126 1.584 9.664.251 4.539.745 8.54 1.098 8.893.971.971 3.004-1.08 5.537-5.587 3.011-5.357 1.91-5.218-1.503.189-1.475 2.336-2.846 3.752-3.047 3.147-.202-.604-.689-4.616-1.082-8.915-.513-5.598-1.142-7.956-2.216-8.31-1.174-.386-1.255-.186-.371.919m-90.519 2.309c-5.774 3.2-6.921 11.947-2.187 16.681 2.29 2.29 3.82 2.923 7.066 2.923 5.181 0 7.574-1.255 9.501-4.98 2.523-4.879 1.937-8.793-1.89-12.62-3.736-3.736-8.101-4.437-12.49-2.004m23.14-.734c-.843.341-1.25 2.933-1.25 7.967 0 6.589.287 7.749 2.455 9.916 1.35 1.35 3.262 2.437 4.25 2.415 1.333-.03 1.094-.42-.93-1.519-1.499-.813-3.186-2.341-3.75-3.394-1.417-2.648-1.29-13.382.175-14.847 1.264-1.264 1.092-1.362-.95-.538m3.754 6.395c.407 5.479.975 7.455 2.454 8.536 2.531 1.851 3.166 1.783 5.542-.593 1.515-1.515 2-3.333 2-7.5 0-4.754.26-5.5 1.917-5.5 1.054 0 2.145.461 2.425 1.025s.392.451.25-.25-1.346-1.275-2.675-1.275c-2.201 0-2.463.491-2.928 5.5-.59 6.357-1.396 8-3.926 8-3.034 0-4.367-2.613-3.817-7.488.291-2.58.023-5.13-.634-6.028-.873-1.194-1.014.1-.608 5.573m-84.787-4.496c-3.304 2.314-5.453 7.088-4.711 10.465.74 3.369 4.122 7.988 5.817 7.942.692-.019.524-.533-.41-1.25-2.46-1.889-3.913-5.254-3.913-9.063 0-2.655.727-4.089 3.077-6.066 4.167-3.507 8.273-3.392 12 .334 4.275 4.275 3.816 5.701-2.089 6.484-2.757.366-5.682.922-6.5 1.236-2.166.831-1.82 4.109.569 5.387 1.642.879 2.779.674 5.647-1.018 2.056-1.213 3.964-1.744 4.467-1.241 1.448 1.448-2.927 4.553-7.457 5.291-4.152.678-4.163.689-.714.809 4.362.151 10.265-3.248 9.808-5.648-.429-2.253-4.128-2.748-5.768-.771-1.469 1.769-5.598 2.072-6.581.481-1.001-1.62.061-2.199 6.309-3.442 7.061-1.404 8.032-3.845 3.379-8.498-3.443-3.443-9.155-4.076-12.93-1.432m56.706 1.362c-3.167 3.168-3.836 7.495-1.76 11.393 1.794 3.367 3.988 4.617 8.164 4.652 4.678.039 9.673-4.32 9.673-8.441 0-9.304-9.76-13.921-16.077-7.604m105.291-2.022c-.503.329-1.445 1.724-2.093 3.099l-1.179 2.5 1.651-2.25c1.881-2.564 6.177-3.012 7.051-.736.963 2.511-1.814 28.488-3.044 28.471-3.246-.046-3.566-1.461-2.455-10.858 1.534-12.98.368-13.387-6.266-2.19-3.246 5.478-5.875 8.89-6.629 8.602-.687-.262-1.25-.04-1.25.492 0 .533.802.969 1.782.969 1.169 0 2.939-2.19 5.154-6.379 1.856-3.509 4.222-7.447 5.259-8.75l1.885-2.371-.591 6c-.325 3.3-.831 7.68-1.125 9.733-.472 3.299-.231 3.871 2.078 4.923 1.598.728 2.971.831 3.536.266 1.091-1.091 3.534-27.646 2.735-29.728-.594-1.548-5.012-2.766-6.499-1.793m-53.416 1.354c-1.017.807-1.939 4.236-2.621 9.745-.88 7.11-.814 8.742.404 9.983 2.205 2.246 4.887.081 5.06-4.084.129-3.123.103-3.155-.327-.399-.599 3.839-1.843 5.135-3.562 3.709-1.044-.866-1.137-2.683-.431-8.407.495-4.016 1.062-7.864 1.258-8.552.442-1.544 4.421-1.672 4.421-.142 0 .683.96.868 2.5.481 3.255-.817 3.444 1.843.25 3.526-2.44 1.284-3.728 2.81-3.704 4.385.008.55.487.188 1.065-.805s2.139-2.22 3.47-2.726c1.656-.629 2.419-1.697 2.419-3.385 0-2.88-1.041-3.795-2.966-2.605-.833.515-2.213.295-3.518-.561-1.726-1.131-2.457-1.163-3.718-.163M344.75 109.08c-.962.561-1.75 1.897-1.75 2.97 0 1.564.643 1.92 3.25 1.8 3.025-.139 3.06-.179.5-.566-3.122-.473-3.461-1.449-1.166-3.354 1.758-1.459 5.126-.033 4.666 1.977-.137.601.2 1.093.75 1.093 1.38 0 1.256-2.344-.2-3.8-1.45-1.45-3.69-1.495-6.05-.12m-17.192.826c-.308.498-1.347.702-2.309.452s-2.528.13-3.481.844c-1.633 1.224-1.603 1.765.528 9.526 1.243 4.525 2.764 8.732 3.381 9.349 1.533 1.533 5.327.179 5.308-1.894-.012-1.318-.201-1.39-.87-.335-.47.742-1.661 1.192-2.646 1-1.288-.25-2.337-2.383-3.737-7.599-2.251-8.389-1.882-10.576 1.637-9.693 1.327.334 2.713.12 3.081-.475s1.091-1.081 1.609-1.081c1.496 0 1.09 3.631-.559 5-.902.749-1.433 2.691-1.332 4.872l.168 3.628.396-3.806c.217-2.093 1.042-4.054 1.832-4.357s1.436-1.852 1.436-3.444c0-2.197-.467-2.893-1.941-2.893-1.068 0-2.193.408-2.501.906m73.477 1.028c-2.193 4.098.191 10.066 4.022 10.066 2.665 0 5.943-3.5 5.943-6.345 0-4.941-7.761-7.839-9.965-3.721m1.053.46c-1.728 2.082-.991 5.611 1.518 7.268 1.852 1.223 2.394 1.158 4.48-.531 2.045-1.656 2.236-2.317 1.375-4.776-1.148-3.285-5.348-4.401-7.373-1.961M275.02 115.25c-5.446 2.783-7.999 6.176-8.726 11.595-1.304 9.719 6.141 18.764 15.278 18.562 4.316-.096 13.428-4.517 13.428-6.515 0-.913-1.743-4.78-2.602-5.775-.182-.211-1.937 1.027-3.899 2.75-2.155 1.892-4.644 3.124-6.284 3.111-6.24-.051-11.027-8.092-8.594-14.433.797-2.077 5.559-4.545 8.77-4.545 3.255 0 4.153-1.614 2.558-4.595-1.612-3.013-4.255-3.054-9.929-.155m34.44-.795c-1.078.815-3.615 1.496-5.637 1.513-2.759.024-4.195.69-5.75 2.667-1.14 1.449-2.07 3.362-2.067 4.25.004.908.686.312 1.559-1.362 2.003-3.843 3.247-4.607 7.044-4.327 1.897.14 3.801-.463 4.885-1.548.978-.978 2.16-1.394 2.629-.925.896.896 5.877 14.946 5.877 16.577 0 .523-1.342.682-2.983.353-2.33-.466-3.524-.055-5.454 1.875-1.36 1.36-3.332 2.472-4.383 2.472-2.907 0-7.046-3.746-8.078-7.313-.507-1.753-.962-2.377-1.012-1.387-.157 3.134 2.706 7.373 5.863 8.68 3.422 1.418 8.442.04 9.452-2.594.452-1.176.908-1.207 2.556-.178 1.663 1.039 2.283.976 3.622-.363 1.488-1.487 1.39-2.313-1.234-10.418-1.567-4.841-3.317-8.949-3.889-9.128-.573-.179-1.923.341-3 1.156m-34.254 1.672c-4.703 2.328-8.206 7.716-8.206 12.621 0 5.325 4.06 11.534 9.215 14.091 4.223 2.096 5.109 2.211 8.5 1.111 3.968-1.287 9.296-4.602 9.27-5.768-.009-.375-.392-1.276-.853-2.002-.657-1.037-1.648-.769-4.624 1.25-6.175 4.191-11.725 2.919-15.014-3.441-3.652-7.062.542-14.989 7.929-14.989 3.905 0 4.074-.203 2.542-3.066-1.331-2.487-3.439-2.44-8.759.193m165.794.571c0 2.634-3.665 7.279-5.823 7.381-1.09.051-1.228.259-.395.594 2.143.861 6.003-2.416 6.726-5.711.375-1.708.414-3.373.087-3.7-.327-.328-.595.319-.595 1.436m-138.345 5.131c-.91 1.006-1.655 2.806-1.655 4 0 2.49 3.28 6.171 5.5 6.171 2.153 0 5.5-3.651 5.5-6 0-2.509-3.401-6-5.845-6-1.015 0-2.59.823-3.5 1.829m.916.742c-2.112 2.112-1.978 4.022.452 6.452 1.547 1.547 2.459 1.79 3.875 1.032 2.786-1.491 3.275-4.882 1.028-7.129-2.336-2.336-3.309-2.401-5.355-.355m217.821 1.923c-4.067 1.733-6.38 4.656-7.074 8.937-.737 4.54 1.059 8.196 5.04 10.254 3.484 1.802 9.379 1.986 10.992.344 1.595-1.624-2.626-5.031-5.352-4.318-2.221.581-4.998-1.23-4.998-3.26 0-.717.788-1.51 1.75-1.762 1.317-.344 1.193-.486-.5-.573-1.715-.088-2.25.431-2.25 2.184 0 3.297 1.851 4.7 6.2 4.7 2.569 0 3.8.448 3.8 1.383 0 2.248-3.522 2.51-7.825.584-4.919-2.202-6.576-5.017-5.7-9.684 1.555-8.289 10.8-11.31 15.936-5.206 1.465 1.741 2.648 4.454 2.725 6.25.108 2.51.229 2.683.582.828 1.346-7.079-6.675-13.496-13.326-10.661m.808 3.706c-1.906 1.906-1.439 2.802 2.268 4.351 4.746 1.983 5.532 1.839 5.532-1.016 0-3.733-5.185-5.95-7.8-3.335m.8 1.202c0 .771 1.35 1.873 3 2.448 3.234 1.127 4.182-.268 1.8-2.65-1.646-1.646-4.8-1.513-4.8.202m21.231 2.848c-.557.688-2.703 4.583-4.769 8.656-3.578 7.052-3.669 7.469-1.918 8.75 2.747 2.008 3.09 1.79 6.143-3.906 2.154-4.021 3.427-5.321 5.435-5.554 3.87-.449 4.226 2.05 1.179 8.262-2.22 4.528-2.442 5.668-1.355 6.977 2.203 2.654 3.816 1.773 6.741-3.685 2.21-4.125 3.403-5.318 5.563-5.566 2.36-.272 2.75.043 2.75 2.219 0 1.394-.936 4.332-2.081 6.527-2.436 4.675-2.212 7.453.636 7.863 1.927.277 3.613-2.023 6.629-9.043 1.631-3.797-.295-1.464-2.684 3.25-1.394 2.75-2.99 5-3.548 5-2.052 0-2.036-2.915.037-6.979 2.969-5.818 2.416-9.432-1.5-9.817-2.693-.264-3.363.285-6.334 5.187-2.19 3.614-3.805 5.297-4.739 4.939-1.77-.68-1.87-.097 1.154-6.702 3.228-7.051 2.661-9.628-2.121-9.628-3.087 0-3.655.473-5.913 4.929-2.811 5.547-3.581 6.279-5.414 5.147-.975-.603-.294-2.732 2.842-8.886 4.118-8.084 6.191-9.529 7.344-5.121.278 1.062 1.334 1.917 2.348 1.901 1.731-.029 1.737-.093.094-1.05-.962-.561-1.75-1.624-1.75-2.363s-.712-1.616-1.582-1.95c-2.069-.794-2.012-.806-3.187.643m-16.731 4.678c2.2 1.058 4.675 1.939 5.5 1.959 1.714.04-3.404-2.321-7.065-3.259-1.339-.343-.635.242 1.565 1.3m28.638.001c.901.575 1.934 2.222 2.295 3.661.584 2.325 1.015 2.548 3.885 2.01 4.447-.834 7.66 1.531 7.752 5.707.058 2.63.212 2.84.872 1.193 1.036-2.583-1.24-7.143-4.003-8.019-1.146-.364-3.15-.394-4.454-.067-1.885.473-2.64.045-3.678-2.085-.719-1.475-1.982-2.853-2.807-3.063-1.149-.293-1.117-.138.138.663m-318.708 5.036c-7.944 3.215-6.957 16.503 1.485 20 5.431 2.249 14.085-2.691 14.085-8.041 0-3.853-3.996-3.422-5.843.631Q246.043 157 243.58 157c-4.293 0-3.704-1.635 1.94-5.382 3.014-2.001 5.48-4.315 5.48-5.143 0-1.981-5.829-5.484-9-5.408-1.375.033-3.432.437-4.57.898m.345 1.553c-5.913 3.297-6.519 9.938-1.375 15.082 1.87 1.87 4.091 3.4 4.935 3.4 4.279 0 10.665-4.491 10.665-7.5 0-2.37-2.607-1.749-4.447 1.059-1.317 2.011-2.357 2.492-4.856 2.25-5.254-.51-4.569-3.163 1.75-6.778 3.054-1.748 5.553-3.525 5.553-3.949 0-1.508-3.675-4.066-6.566-4.571-1.684-.294-4.094.135-5.659 1.007m-23.562 1.67c-1.797 1.796-1.582 2.642 2.761 10.824 2.185 4.119 3.985 7.877 4 8.353.031 1.035-3.597-1.204-10.711-6.609-5.242-3.983-8.263-4.413-8.263-1.177 0 .903 1.646 4.972 3.657 9.041 2.011 4.07 3.367 7.689 3.013 8.043s-3.685-1.692-7.403-4.547c-7.022-5.392-10.578-6.238-11-2.616-.172 1.469 1.672 3.328 6.942 7 3.946 2.75 9.152 6.489 11.568 8.308 4.619 3.479 7.807 3.828 9.55 1.047.789-1.261.17-3.284-2.648-8.647-2.024-3.85-3.679-7.288-3.679-7.639 0-1.032 4.128 1.427 9.434 5.619l4.935 3.898 2.411-2.412 2.411-2.411-6.845-13.34c-3.765-7.337-7.313-13.477-7.883-13.644s-1.584.242-2.25.909m.19 1.204c-.294.765 1.295 5.03 3.531 9.478 6.193 12.316 5.604 12.761-6.036 4.558-9.768-6.884-10.666-5.9-4.964 5.442 6.184 12.297 5.548 12.811-5.692 4.601-4.164-3.04-8.031-5.375-8.594-5.187-2.801.934-.77 3.124 9.859 10.635 8.415 5.947 12.119 8.017 13.539 7.566 2.651-.841 2.468-1.948-1.569-9.439-5.661-10.507-4.605-11.454 5.075-4.546 6.925 4.941 7.643 5.175 9.4 3.057.966-1.163-.106-3.97-5.536-14.5-3.704-7.181-7.127-13.057-7.606-13.057s-1.113.626-1.407 1.392m22.637.06c-1.536 1.85-.968 4.943.971 5.297 2.111.385 7.473-4.157 6.591-5.583-1.016-1.644-6.121-1.451-7.562.286m1.16.748c-1.157 1.157-1.676 3.8-.747 3.8 1.67 0 5.547-2.558 5.547-3.661 0-1.664-3.182-1.757-4.8-.139m147.8-.277c-3.575.317 4.75.577 18.5.577s22.3-.289 19-.641c-7.225-.773-28.492-.737-37.5.064m-30 3.551c-38.155 6.497-73.952 20.59-107.199 42.205-11.95 7.769-30.801 22.099-30.801 23.415 0 2.321 3.019 7.906 4.275 7.906.757 0 2.433-1.125 3.725-2.5s2.736-2.5 3.21-2.5 1.708 1.975 2.743 4.39 2.412 4.717 3.06 5.118c.706.436 3.059-1.124 5.867-3.89 2.579-2.54 5.223-4.618 5.876-4.618s1.609 1.463 2.125 3.25c.67 2.318.964 2.637 1.029 1.111.049-1.177-.773-3.202-1.828-4.5l-1.919-2.361-4.834 5.25c-2.659 2.887-5.094 5.25-5.411 5.25s-1.63-2.25-2.918-5c-2.656-5.671-4.212-6.13-8.113-2.391l-2.723 2.608-1.582-3.059c-.87-1.682-1.582-3.284-1.582-3.56 0-1.14 25.298-19.751 35.5-26.118 20.218-12.616 34.445-19.434 56.247-26.953 20.046-6.914 45.156-12.618 65.253-14.823 2.567-.282 2.167-.403-1.5-.456-2.75-.04-11.075.961-18.5 2.226m77.5-1.822c22.905 3.197 44.828 8.292 62.5 14.527 17.283 6.097 17.63 6.237 30 12.102 53.83 25.525 101.522 71.212 128.626 123.219 11.421 21.913 16.664 35.725 23.537 62 2.159 8.25 3.661 12.975 3.338 10.5-1.819-13.963-11.145-42.609-20.025-61.507-36.208-77.059-108.3-135.562-191.476-155.384-13.928-3.319-24.253-5.086-32.1-5.493-4.07-.21-6.05-.195-4.4.036m147.143 4.386c-8.889 2.632-11.071 13.334-3.873 18.996 3.571 2.809 10.255 2.662 12.907-.284 3.383-3.758 3.901-5.48.602-2-3.965 4.182-8.734 4.421-13.202.661-6.482-5.454-2.193-16.411 6.423-16.411 4.816 0 9.441 4.402 9.636 9.173.103 2.512.246 2.752.582.982 1.276-6.709-6.276-13.13-13.075-11.117m-1.072 6.533c-2.813 2.814-1.478 9.496 1.879 9.399.578-.017.262-.489-.7-1.05-2.211-1.288-2.263-5.696-.095-8.091 2.02-2.232 1.108-2.449-1.084-.258m6.901.745c1.848 2.821.993 5.73-2.234 7.611-1.64.955-1.64 1.014-.011 1.043 2.748.048 5.283-4.621 4.189-7.716-.504-1.425-1.523-2.792-2.265-3.039-.99-.328-.904.232.321 2.101m9.627 12.229c-4.289 6.144-5.044 7.816-4.061 9 2.048 2.468 4.571 1.627 7.41-2.47 2.938-4.239 4.695-5.341 7.065-4.432 1.789.687 4.487-1.295 4.487-3.297 0-.775-.788-1.703-1.75-2.062s-2.338-1.469-3.057-2.468c-2.4-3.335-4.661-2.051-10.094 5.729m2.799-1.795c-1.759 2.613-4.078 5.729-5.153 6.926s-1.656 2.659-1.291 3.25c1.246 2.015 3.525 1.078 5.787-2.378 2.512-3.838 5.898-5.816 8.348-4.875.893.342 2.008-.005 2.497-.777 1.331-2.104 1.1-2.896-.845-2.896-.968 0-2.322-.9-3.009-2-1.832-2.933-2.787-2.518-6.334 2.75m20.87-2.14c-1.021 2.24-.92 2.806.713 4 2.292 1.676 4.16 1.78 5.085.283.453-.733.014-.895-1.3-.478-1.225.389-2.483.029-3.289-.943-1.089-1.312-1.019-1.854.423-3.272 1.629-1.602 1.841-1.563 3.665.661 2.109 2.573 2.537 2.133.9-.927-1.49-2.783-4.785-2.424-6.197.676m-10.276 13.486c-4.578 5.666-5.591 7.525-4.791 8.794 2.003 3.181 4.016 2.145 9.77-5.026 4.492-5.6 5.571-7.574 4.804-8.793-1.982-3.148-4.03-2.096-9.783 5.025m4.299-3.271c-7.742 8.494-10.089 13.249-6.482 13.138 1.069-.032 10.765-11.729 11.483-13.852.743-2.197-2.809-1.689-5.001.714m5.286 10.252c-2.486 2.486-3.077 3.906-3.077 7.396 0 3.693.513 4.77 3.535 7.423 1.944 1.707 4.306 3.086 5.25 3.065.979-.022.376-.622-1.407-1.398-6.848-2.98-8.525-10.57-3.455-15.64 7.347-7.346 19.879 1.104 15.042 10.143-1.487 2.777-2.692 2.44-7.661-2.14-3.659-3.373-4.677-3.861-5.91-2.838-2.493 2.069-1.215 5.255 2.92 7.275 2.441 1.192 3.622 2.362 3.281 3.25-.293.763-.096 1.387.436 1.387 1.144 0 1.25-2.011.194-3.671-.41-.644-1.978-1.48-3.485-1.858-2.228-.559-2.74-1.251-2.74-3.701v-3.013l5.627 4.808c5.402 4.615 5.684 4.73 7.044 2.871 1.971-2.695 2.661-5.977 1.897-9.022-1.934-7.706-11.701-10.127-17.491-4.337m7.173.585c-.687.278-1.25 1.064-1.25 1.747 0 1.771 4.314 5.591 6.314 5.591 2.525 0 2.144-4.566-.537-6.443-2.352-1.648-2.559-1.689-4.527-.895m-.25 2.223c0 1.124 5.003 4.446 5.678 3.77.278-.277.208-1.438-.154-2.58-.652-2.054-5.524-3.104-5.524-1.19m14.902 12.213c-2.109 2.109-2.213 4.961-.39 10.652.537 1.674.325 2.25-.826 2.25-.851 0-1.691-.967-1.866-2.148-.423-2.842-3.351-4.721-4.917-3.155-.851.851-.866 1.971-.056 4.294 2.209 6.336 8.995 9.051 12.617 5.048 1.753-1.936 1.75-3.099-.02-10.289-.889-3.609 1.755-3.804 3.374-.25 1.9 4.169 4.923 2.589 3.778-1.974-.568-2.261-6.099-6.526-8.464-6.526-.623 0-2.076.944-3.23 2.098m1.225.526c-1.831 1.282-2.193 2.227-1.722 4.5 1.998 9.654 2.03 9.075-.488 8.712-1.502-.216-2.538-1.201-2.904-2.762-.731-3.122-3.013-3.949-3.013-1.092 0 5.685 5.423 9.281 9.735 6.456 1.929-1.264 2.343-2.196 1.902-4.277-1.974-9.319-1.978-9.161.214-9.161 1.143 0 2.56.9 3.149 2 1.236 2.31 3 2.656 3 .589 0-1.366-5.434-6.589-6.854-6.589-.386 0-1.744.731-3.019 1.624m-387.541 23.419c-1.603.48-3.291.64-3.75.355-.46-.284-.836.017-.836.668 0 .824.989.955 3.25.43 7.159-1.662 7.795-1.392 9.892 4.186 1.631 4.341 2.642 5.519 6.218 7.25 2.349 1.138 4.75 2.068 5.335 2.068s2.729 2.032 4.765 4.516 7.377 7.294 11.87 10.689c11.292 8.533 25.325 23.003 33.005 34.035 10.32 14.824 17.431 29.397 25.255 51.76 3.723 10.64 4.513 10.851 1.333.355-3.177-10.49-11.655-29.784-17.732-40.355-10.768-18.73-21.084-30.556-39.441-45.21-7.562-6.037-13.75-11.539-13.75-12.228 0-1.875-2.947-4.019-8.169-5.944-4.979-1.836-6.795-3.882-8.757-9.868-1.317-4.018-2.666-4.448-8.488-2.707m417.049 2.296c-2.79 2.971-3.597 3.29-7.331 2.9-3.499-.366-4.619-.015-6.75 2.116-1.405 1.405-2.554 3.665-2.554 5.023 0 2.832 4.152 8.218 7.044 9.136 1.323.42 1.956 1.52 1.956 3.398 0 3.08 3.509 7.007 4.927 5.514.483-.509 1.037-1.806 1.231-2.882.199-1.105 1.438-2.211 2.847-2.541 2.829-.663 4.229-5.003 1.614-5.003-.836 0-1.978-.787-2.539-1.75-.957-1.643-1.021-1.637-1.05.094-.016 1.019.865 2.077 1.97 2.366 2.922.764 2.443 3.105-.71 3.474-1.87.218-2.878 1.032-3.25 2.625-.832 3.557-2.365 3.087-3.535-1.084-.693-2.469-2.116-4.419-4.112-5.632-8.645-5.258-5.213-15.252 4.665-13.583 3.471.586 4.029.392 5.001-1.74.601-1.319 2.296-3.145 3.767-4.058s2.06-1.671 1.309-1.685-2.776 1.475-4.5 3.312m8.514-1.642c1.457.904 3.374 3.03 4.26 4.724 1.37 2.618 1.522 2.705 1.02.579-.639-2.707-4.802-7.016-6.735-6.973-.657.014-.002.766 1.455 1.67m-4.582 4.229c-2.481 2.741-1.344 5.296 2.177 4.891 2.322-.267 2.756-.787 2.756-3.303 0-3.656-2.371-4.419-4.933-1.588m.04 1.656c-.921 2.399-.787 2.583 1.633 2.238 2.876-.411 3.715-3.82.94-3.82-1.081 0-2.239.712-2.573 1.582m7.632 4.408c-.834 1.335-2.581 1.989-5.884 2.204-3.139.204-4.833.804-5.103 1.806-.336 1.248-.241 1.266.571.105.658-.942 1.975-1.195 4.054-.78 2.378.476 3.711.073 5.851-1.769 1.525-1.312 2.53-2.629 2.234-2.925-.296-.297-1.071.314-1.723 1.359m-21.039.21c-2.518 2.518-.641 6.8 2.981 6.8 1.929 0 3.43-3.966 2.458-6.498-.691-1.802-3.768-1.973-5.439-.302m1.05.462c-1.82.735-1.53 4.016.42 4.765 1.825.7 3.291-.926 3.315-3.677.015-1.718-1.256-2.088-3.735-1.088m27.58 28.365c-4.429 2.34-7.656 6.627-8.384 11.139-.534 3.308-.527 3.304.923-.511 3.673-9.667 13.192-14.023 21.543-9.857 4.308 2.149 6.975 5.731 7.729 10.379.488 3.005.23 3.822-1.501 4.748-2.234 1.196-1.991 1.622-3.652-6.396-.281-1.359-1.448-2.972-2.592-3.585l-2.081-1.113 1.999 2.834c1.099 1.559 2.287 4.523 2.638 6.585.715 4.2 2.164 4.688 5.287 1.779 1.853-1.727 1.989-2.432 1.09-5.685-1.489-5.393-3.635-8.205-7.942-10.402-4.792-2.444-10.327-2.413-15.057.085m6.42 4.662c.962.252 2.538.252 3.5 0 .962-.251.175-.457-1.75-.457s-2.712.206-1.75.457m-6.604 2.763c-3.862 3.579-3.696 9.389.394 13.782l3.04 3.266-2.54-3.89c-3.477-5.324-3.31-9.088.566-12.709 1.708-1.595 2.674-2.901 2.146-2.901s-2.151 1.104-3.606 2.452m-8.57 8.848c-.104 2.472 2.235 6.734 5.235 9.536 2.075 1.938 2.856 2.145 4.595 1.214 2.802-1.499 2.64-1.784-.733-1.289-3.037.446-5.423-2.066-7.847-8.261-.746-1.906-1.202-2.344-1.25-1.2m16.232 12.71c-2.816 1.134-5.558 5.326-5.558 8.496 0 8.816 8.377 14.065 16.085 10.079 2.565-1.326 4.198-3.642 5.564-7.891 1.35-4.197-5.144-12.762-8.617-11.367-.84.338-.709.542.379.594 2.83.135 6.839 5.852 6.839 9.755 0 4.763-4.736 9.324-9.683 9.324-5.013 0-9.317-4.504-9.317-9.749 0-3.944 1.829-6.501 6.5-9.084 2.371-1.311.93-1.415-2.192-.157m1.347 5.819c-3.566 3.94-1.214 9.171 4.124 9.171 4.12 0 6.942-6.879 4.021-9.8-1.793-1.793-6.266-1.448-8.145.629m.916.742c-3.706 3.707-.189 8.375 4.864 6.454 1.944-.74 2.565-1.681 2.565-3.893 0-4.127-4.36-5.629-7.429-2.561m8.929 18.8c-7.143 2.002-8.033 2.517-8.304 4.808-.2 1.688.276 2.788 1.391 3.216 1.408.54 1.486.398.46-.838-.68-.82-1.058-2.025-.839-2.68.451-1.353 15.735-6.03 17.05-5.218.472.292.591 1.753.263 3.247-.436 1.983-.047 3.213 1.441 4.56 2.248 2.034 2.671 5.501.889 7.283-.865.865-.37 2.034 2 4.734 3.921 4.466 3.931 5.681.072 8.928-1.692 1.424-2.571 2.589-1.954 2.589 1.442 0 6.031-4.569 6.031-6.004 0-1.826-2.984-6.996-4.037-6.996-.59 0-.731-1.601-.35-3.984.475-2.968.176-4.689-1.172-6.746-.995-1.519-1.839-4.105-1.875-5.747-.084-3.818-1.155-3.929-11.066-1.152m-1 6.184c-3.822 1.339-3.054 1.306 4.423-.19 2.992-.598 5.666 1.658 4.76 4.018-.297.775-2.935 2.186-5.862 3.136s-5.771 2.148-6.321 2.663c-.644.603-.466.765.5.455.825-.265 3.841-1.221 6.703-2.124 5.931-1.872 7.552-4.469 4.732-7.585-2.023-2.236-3.448-2.295-8.935-.373m4 12.41c-1.386.571-.465.779 3 .679 4.705-.135 5 .003 5 2.356 0 2.164-.806 2.772-6 4.524-4.679 1.578-6.07 2.515-6.32 4.254-.454 3.16 2.166 3.807 7.669 1.896 3.747-1.302 3.971-1.492 1.151-.978-5.784 1.053-7.421.884-7.764-.801-.244-1.2 1.2-2.034 5.71-3.3 3.627-1.018 6.439-2.446 7.045-3.579 1.31-2.447 1.292-2.59-.562-4.445-1.681-1.68-5.666-1.951-8.929-.606M353 354.517c0 2.297 5.4 24.433 7.333 30.062 2.751 8.009 11.156 25.531 15.684 32.696 3.621 5.73 6.917 7.871 17.483 11.36 10.396 3.432 14.695 5.643 19.61 10.083 5.343 4.827 6.89 8.102 6.89 14.582 0 6.152-2.648 10.675-9.868 16.855-2.273 1.945-4.132 4.036-4.132 4.646 0 .609 4.629 5.741 10.287 11.404 10.774 10.782 13.679 15.312 14.502 22.617.431 3.819-.148 5.658-4.362 13.871l-4.859 9.469 4.229 3.512c5.437 4.517 9.203 10.947 9.203 15.714 0 6.357-2.255 9.179-10.508 13.148-4.121 1.982-7.492 4.2-7.492 4.93s1.569 4.636 3.488 8.68c4.076 8.595 5.385 14.646 5.018 23.183-.386 8.952-2.722 13.708-10.143 20.65-7.774 7.273-20.855 13.964-39.863 20.392-21.234 7.18-34.099 12.516-40.743 16.899-12.03 7.936-26.757 25.877-26.757 32.597 0 2.645 2.862 4.51 11.573 7.542 7.598 2.644 30.749 7.657 34.542 7.479 1.312-.061.135-.51-2.615-.996-13.37-2.365-33.051-7.636-38.929-10.426-1.964-.931-3.571-2.345-3.571-3.142s1.203-3.99 2.672-7.097c4.097-8.659 18.625-22.694 28.832-27.853 9.03-4.564 20.762-9.227 32.707-13 13.393-4.231 31.515-12.334 37.595-16.81 17.865-13.152 20.852-28.323 10.072-51.161-1.583-3.353-2.878-6.505-2.878-7.005 0-.499 2.678-1.947 5.952-3.216 8.054-3.123 12.048-7.681 12.048-13.749 0-6.212-1.927-10.11-7.829-15.837l-5.053-4.905 4.189-7.595c3.733-6.768 4.186-8.305 4.155-14.096-.049-8.967-2.44-13.035-14.745-25.084l-10.188-9.976 4.743-4.054c6.664-5.696 9.728-11.292 9.728-17.764 0-12.152-7.925-19.272-29.5-26.506-9.34-3.132-10.111-3.655-14.174-9.616-8.621-12.651-15.951-30.833-20.86-51.75-1.452-6.187-2.826-11.25-3.053-11.25s-.413.233-.413.517m373.05 3.837c-.628.63-3.259 1.692-5.846 2.36l-4.704 1.215 4.32-.488c2.377-.268 5.338-1.153 6.58-1.968 1.243-.814 2.559-1.18 2.925-.814.367.366 2.69.589 5.163.496 4.923-.187 8.512 2.233 8.512 5.738 0 2.706-2.752 3.439-4.02 1.07-.681-1.273-2.093-1.963-4.015-1.963-2.506 0-2.965.392-2.965 2.532 0 1.676-.761 2.856-2.25 3.49-2.217.944-2.214.955.25.718 1.91-.183 2.575-.889 2.816-2.99.249-2.16.839-2.75 2.75-2.75 1.519 0 2.434.576 2.434 1.531 0 2.094 2.697 2.965 4.513 1.458 2.123-1.762 1.839-4.493-.763-7.338-1.786-1.954-3.518-2.562-8.404-2.952-3.922-.314-6.568-.076-7.296.655m-14.556 4.655c-.342.555-.339 1.905.009 3 .682 2.15 4.249 2.49 9.997.951 2.317-.62 1.643-.764-2.966-.631-4.851.139-6.03-.14-6.307-1.495-.197-.959.425-1.864 1.466-2.134 1.567-.406 1.582-.483.116-.584-.93-.064-1.972.338-2.315.893m14.71 3.946c1.379 2.209 2.351 1.934 1.451-.412-.326-.849-1.06-1.543-1.632-1.543-.658 0-.592.717.181 1.955m-5.704 8.99c-3.321 1.36-5.561 4.589-6.02 8.681l-.435 3.874 1.04-4.268c1.164-4.776 3.971-7.163 9.751-8.288 3.387-.66 3.437-.718.664-.766-1.65-.028-3.9.317-5 .767m107.076-.187c-1.378 1.377-.279 4.312 4.003 10.697l4.578 6.826-2.962-.592a144 144 0 0 1-5.578-1.249c-2.126-.534-2.617-.305-2.617 1.219 0 2.189 7.535 10.363 11.965 12.979 3.614 2.135 3.45 3.672-.465 4.362-4.774.842-3.936 2.694 3.434 7.595 3.886 2.584 7.066 5.027 7.066 5.429s-.675 1.291-1.5 1.976c-2.292 1.902-1.826 2.966 2 4.564 1.925.805 3.5 1.869 3.5 2.364 0 1.221-9.65 8.841-14.04 11.087-3.529 1.806-18.501 6.531-37.459 11.821-6.755 1.886-10.096 3.3-10.301 4.362-.35 1.817 4.413 3.794 9.199 3.817 1.706.009 3.747.424 4.537.924 2.217 1.403-.187 3.659-8.196 7.692-6.689 3.368-8.151 5.54-4.157 6.173 1.627.258 1.69.133.417-.826-.852-.642-1.063-1.315-.49-1.558.556-.235 3.927-2.122 7.491-4.195 8.899-5.174 9.324-9.111.999-9.255-1.925-.033-4.85-.66-6.5-1.392l-3-1.333 2.704-1.08c1.487-.594 8.687-2.69 16-4.658 16.329-4.393 23.457-6.798 30.142-10.171 5.443-2.746 14.654-9.914 14.654-11.403 0-.485-1.462-1.625-3.25-2.534-4.272-2.173-4.23-2.115-2.781-3.862 1.904-2.294.723-3.993-5.907-8.495-3.334-2.264-6.062-4.494-6.062-4.954 0-.461 1.35-1.108 3-1.438 3.551-.71 4.191-4.137.964-5.161-1.12-.356-4.495-3.047-7.5-5.981-5.478-5.348-7.079-8.373-3.714-7.016.962.388 3.438.945 5.5 1.238 2.912.414 3.75.196 3.75-.976 0-.83-.718-2.105-1.594-2.832-1.899-1.576-7.383-10.919-7.397-12.601-.008-1.084 36.442 10.782 42.181 13.731 4.244 2.182 8.93 7.386 12.559 13.948 9.073 16.406 11.929 17.117 23.232 5.779 5.894-5.912 6.114-6.028 10.515-5.532 3.184.359 6.029 1.664 9.75 4.473 2.89 2.181 7.476 4.949 10.192 6.15 4.482 1.982 4.793 2.328 3.37 3.75-.862.862-5.829 3.487-11.038 5.834-11.848 5.336-14.581 7.359-21.484 15.9-6.846 8.47-15.064 13.927-25.735 17.089-12.09 3.583-16.512 3.921-26.174 2.004-9.548-1.895-15.191-1.531-18.722 1.205-10.758 8.337-18.337 13.716-23.18 16.449l-5.704 3.219.694-3.16c.503-2.291.329-3.188-.636-3.261-2.79-.213-7.464.265-10.829 1.106-2.458.615-1.293.701 3.913.29 7.954-.628 7.559-.931 5.48 4.205-1.834 4.532 8.163-.715 24.288-12.747 4.973-3.711 10.388-7.017 12.034-7.346s6.764.171 11.374 1.111c9.737 1.986 17.398 1.523 27.044-1.633 14.051-4.598 19.323-8.307 30.311-21.326 4.258-5.044 6.41-6.55 15.5-10.842 12.06-5.695 16.348-8.435 15.458-9.876-.342-.554-2.524-1.821-4.847-2.818-2.324-.996-7.253-3.883-10.953-6.417-5.596-3.831-7.502-4.606-11.324-4.606-4.352 0-4.926.345-10.814 6.5-9.624 10.06-12.863 9.049-21.077-6.583-5.448-10.367-8.758-12.703-27.153-19.155-23.016-8.074-28.017-9.645-28.658-9.004M682 376.657c0 .545.772 5.682 1.717 11.417 1.362 8.276 1.723 17.026 1.75 42.426.019 18.354.343 29.441.761 26 1.552-12.806.925-48.386-1.136-64.361-1.09-8.449-2.231-15.611-2.537-15.917-.305-.305-.555-.11-.555.435m49.242 2.093c3.539 3.721 4.293 7.315 2.329 11.113-3.188 6.165-10.877 7.162-15.67 2.031-1.595-1.708-2.901-2.586-2.901-1.952s1.191 2.257 2.646 3.606c2.933 2.718 8.434 3.284 12.759 1.313 3.336-1.52 5.975-7.212 5.181-11.179-.632-3.16-4.133-7.682-5.947-7.682-.557 0 .164 1.238 1.603 2.75m-9.992 2.774c-1.254.886-2.25 2.639-2.25 3.961 0 5.6 7.553 7.653 10.667 2.9 1.535-2.343 1.56-2.89.242-5.25-1.759-3.148-5.499-3.844-8.659-1.611m.969 1.035c-3.813 2.671-2.269 7.441 2.41 7.441 2.4 0 5.381-2.405 5.356-4.321-.047-3.577-4.537-5.381-7.766-3.12M722 401.891c-5.309.588-5.5.713-5.5 3.609 0 2.58.387 3.017 2.762 3.122 2.53.111 2.551.085.25-.317-1.655-.288-2.512-1.091-2.512-2.352 0-2.275 1.926-2.812 11.419-3.183l6.918-.27.108 4.75c.122 5.395-1.356 6.199-4.594 2.5l-1.97-2.25 1.709 2.802c1.284 2.106 2.354 2.727 4.309 2.5 1.757-.204 2.463-.789 2.174-1.802-.235-.825-.46-3.3-.5-5.5l-.073-4-4.5-.109c-2.475-.06-6.975.165-10 .5m192.051 10.548c-1.769 2.131-.65 4.373 2.587 5.185 3.434.862 7.862-1.482 7.862-4.162 0-1.621-.798-2.014-4.588-2.26-3.192-.208-4.975.169-5.861 1.237m.949.595c-1.298.869-1.239 1.203.441 2.485 1.068.815 2.43 1.481 3.028 1.481 1.827 0 5.601-3.078 4.989-4.068-.764-1.236-6.563-1.166-8.458.102m-182.964 5.422c-.781.942-3.558 1.56-7.862 1.75-5.807.257-6.679.548-6.856 2.294-.158 1.557-.089 1.613.313.25.424-1.438 1.693-1.75 7.114-1.75 4.77 0 7.111-.464 8.45-1.676 1.42-1.286 2.127-1.402 3.029-.5.647.647 2.692 1.176 4.546 1.176 2.922 0 3.327.299 3.05 2.25-.218 1.529-1.122 2.359-2.82 2.591-1.375.188-3.288 1.045-4.25 1.905-1.589 1.421-1.918 1.412-3.579-.091-2.182-1.975-15.798-2.479-14.6-.541.455.737 2.626.896 6.409.468 4.495-.509 5.993-.319 6.993.885 1.594 1.921 4.672 1.985 5.727.12.44-.778 2.15-1.565 3.8-1.75 2.592-.291 3-.745 3-3.337 0-2.594-.406-3.044-3-3.327-1.65-.18-3.428-.742-3.95-1.25-1.419-1.379-4.146-1.115-5.514.533m-14.551 16.592c-1.369 4.313 4.42 6.866 6.549 2.888.82-1.532.798-2.434-.087-3.5-1.797-2.165-5.698-1.796-6.462.612m1.182-.381c-1.18 1.179-.712 3.379.846 3.976 1.974.758 4.522-1.387 3.821-3.216-.564-1.469-3.484-1.944-4.667-.76m-19.563 18.268c-1.525.943-.486 3.664 3.071 8.043 3.686 4.537 3.744 6.322.162 4.96-6.249-2.376-4.954 3.385 1.706 7.589 4.187 2.643 4.919 4.166 2.457 5.111-2.547.978-1.675 2.98 2.5 5.743 2.999 1.985 4 3.312 4 5.304 0 1.462.785 3.525 1.745 4.585 1.675 1.851 1.625 2.024-1.25 4.32-7.33 5.854-21.631 11.678-31.745 12.929-4.823.597-5.75.463-5.75-.832 0-.849 1.371-7.475 3.046-14.726 1.676-7.251 2.897-13.632 2.714-14.182-.459-1.376-6.76 25.234-6.76 28.548 0 2.364.386 2.673 3.34 2.673 4.241 0 17.38-3.34 23.112-5.876 5.911-2.615 14.375-8.23 15.048-9.984.3-.782-.14-2.468-.977-3.746-.838-1.278-1.523-3.403-1.523-4.723 0-1.678-1.225-3.248-4.076-5.224l-4.076-2.824 2.326-1.854 2.326-1.855-2.929-2.207c-8.811-6.639-11.039-9.976-5.174-7.746 4.14 1.574 4.46-1.239.732-6.431-5.588-7.782-4.468-7.997 10.817-2.084 4.705 1.82 10.254 3.909 12.332 4.643 5.691 2.008 10.161 6.216 14.114 13.284 3.307 5.914 7.022 9.627 9.633 9.627.602 0 3.474-2.25 6.381-5 4.25-4.019 5.966-5 8.749-5 1.905 0 4.336.667 5.404 1.482 1.811 1.384 1.724 1.442-1.307.876-5.782-1.081-8.854 4.499-3.756 6.822 2.062.94 2.844.822 4.5-.676 1.102-.998 2.004-2.644 2.004-3.659s.207-1.845.459-1.845c.983 0 9.541 5.523 9.541 6.157 0 .369-3.712 2.48-8.25 4.689-6.758 3.292-9.444 5.344-14.851 11.351-4.587 5.094-8.402 8.233-12.5 10.282-5.665 2.833-6.579 2.971-23.049 3.485l-17.149.536-4.351 3.451c-9.883 7.84-11.483 9.009-14.35 10.483-2.795 1.438-3.103 1.411-4.5-.391-1.3-1.676-2.339-1.856-7.792-1.346l-6.291.588-10.348 21.285c-13.384 27.53-22.988 42.446-40.197 62.43-13.535 15.718-32.271 33.138-46.613 43.337-21.768 15.482-60.471 35.627-77.109 40.136-2.832.768-6.546 1.949-8.253 2.625-6.748 2.674-6.405 5.405-6.324-50.317.071-48.895.521-59.775 2.558-61.812.541-.541 5.457-2.683 10.926-4.761 6.856-2.605 13.191-6.028 20.405-11.027 17.153-11.885 21.586-12.287 38.038-3.457 17.151 9.206 17.971 9.51 27 10.024 5.103.29 10.299-.002 13-.73 6.318-1.704 11.963-7.809 14.358-15.529 1.022-3.294 2.597-6.838 3.5-7.876s6.605-4.228 12.67-7.087c7.769-3.663 11.587-6.061 12.919-8.113 3.437-5.295 9.569-10.243 18.103-14.607 8.028-4.104 10.108-5.933 8.925-7.846-.292-.473-4.293-3.132-8.892-5.91-9.976-6.026-14.723-6.659-18.642-2.488-1.324 1.41-3.89 3.479-5.702 4.599-4.065 2.513-4.877 1.964-9.619-6.506-4.675-8.35-9.06-12.061-16.62-14.064-1.375-.365.2.728 3.5 2.428 6.678 3.439 8.398 5.206 12.15 12.481 5.182 10.05 6.975 10.55 14.35 4 3.687-3.275 5.91-4.5 8.165-4.5 3.683 0 21.123 9.633 20.553 11.353-.209.631-4.357 3.243-9.219 5.806-6.676 3.518-10.572 6.465-15.919 12.038-6.277 6.543-8.135 7.818-16.383 11.25-10.42 4.336-12.363 6.213-14.931 14.42-3.65 11.667-12.547 16.93-26.797 15.852-7.747-.586-9.056-1.108-29.297-11.686-6.887-3.599-9.311-4.362-14-4.408-6.856-.066-14.301 3.106-21.647 9.222-6.051 5.038-16.109 10.381-23.525 12.496-8.115 2.315-9.251 3.47-10.099 10.277-1.221 9.806-1.063 106.818.176 108.057 1.622 1.622 8.912-.467 27.998-8.024 54.792-21.697 100.691-58.952 133.171-108.091C648.149 573.118 668 534.859 668 531.998c0-1.352 3.304-2.547 9.191-3.324 4.092-.54 4.772-.367 5.318 1.353.344 1.085 1.068 1.973 1.608 1.973 1.982 0 7.335-3.335 14.53-9.053 8.563-6.804 10.884-7.442 23.632-6.496 16.577 1.23 27.593-3.113 38.334-15.114 5.531-6.18 7.977-8.039 14.964-11.374 9.059-4.323 9.707-5.641 4.096-8.328-1.745-.835-4.723-2.67-6.617-4.077-2.417-1.794-4.702-2.558-7.659-2.558-3.649 0-4.842.61-8.902 4.557-6.801 6.61-8.565 6.11-15.495-4.39-5.909-8.954-9.395-11.717-19-15.065-3.025-1.054-9.15-3.261-13.612-4.904s-8.639-2.661-9.284-2.263m-15.854 18.004c-.675 4.63-1.053 8.592-.84 8.805.604.604 2.797-13.433 2.411-15.436-.189-.982-.896 2.002-1.571 6.631m81.854 8.954c-2.346 1.521-.487 4.284 2.64 3.924 1.984-.228 2.756-.878 2.756-2.317 0-2.202-3.068-3.115-5.396-1.607m-190.055 2.549c-1.678 2.021-.692 5.64 2.602 9.555l2.651 3.15-3.651-.685c-3.35-.628-3.651-.493-3.651 1.638 0 1.532 1.896 4.088 5.568 7.506 3.64 3.386 5.112 5.364 4.25 5.709-.869.348-.722.554.432.606 2.865.129 1.996-2.496-1.779-5.375-7.637-5.825-9.937-10.114-4.605-8.584 4.842 1.388 5.704-.244 2.223-4.208-3.156-3.595-4.209-8.754-1.785-8.754.716 0 5.97 1.572 11.674 3.492 5.704 1.921 10.528 3.335 10.722 3.142.287-.288-5.225-2.351-22.29-8.342-.599-.211-1.662.307-2.361 1.15m-111.684 1.647c-3.767 1.092-9.77 6.97-12.503 12.242-2.323 4.482-5.899 17.84-5.778 21.579.047 1.424.931-1.161 1.966-5.745 3.133-13.883 7.86-22.487 14.15-25.76 3.84-1.998 10.72-1.751 14.442.519 6.082 3.708 23.398 18.212 33.571 28.12 12.904 12.565 18.191 15.438 27.096 14.723 5.258-.422 8.362-1.604 19.716-7.509 7.411-3.854 16.057-8.045 19.213-9.312 3.155-1.267 5.562-2.48 5.347-2.694-.68-.681-10.615 3.647-25.12 10.94-13.119 6.597-14.463 7.058-20.585 7.058-9.073 0-12.239-1.789-25.248-14.268-19.42-18.628-30.044-27.218-36.632-29.619-4.056-1.478-5.354-1.515-9.635-.274m.757 23.314c-5.936 15.867-6.689 40.371-1.722 56.107 1.39 4.405 3.179 8.899 3.974 9.986 1.405 1.922 1.502 1.926 3.476.14 6.767-6.124 9.16-36.385 4.597-58.136-3.116-14.86-6.733-17.697-10.325-8.097m2.514-3.623c-.265.428-1.615 4.816-3 9.75-4.679 16.67-4.456 36.504.585 51.957 2.99 9.166 4.849 9.615 7.747 1.869 2.99-7.991 4.394-20.91 3.626-33.356-1.148-18.602-6.007-34.995-8.958-30.22M673.4 517.765c-1.665 1.112-3.4 4.834-3.4 7.294 0 1.936.379 2.117 3.25 1.554 6.184-1.211 10.904-6.633 7.598-8.728-1.653-1.048-5.955-1.117-7.448-.12m-1.365 3.169c-2.734 5.109-.366 6.445 4.99 2.816 4.888-3.312 4.916-4.75.094-4.75-2.979 0-4.322.511-5.084 1.934m-227.84 4.566c.02 1.65.244 2.204.498 1.231s.237-2.323-.037-3-.481.119-.461 1.769m-.943 13c.011 2.2.216 2.982.455 1.738s.23-3.044-.02-4-.446.062-.435 2.262m1.319 17.5c.74 9.169 3.207 18.737 6.188 24a441 441 0 0 1 4.395 7.961c1.015 1.904 1.846 2.78 1.846 1.946s-1.284-3.54-2.853-6.014c-3.603-5.681-6.698-14.989-8.61-25.893-1.424-8.12-1.467-8.209-.966-2m12.896 91.5c0 30.8.127 43.544.282 28.321s.156-40.423 0-56c-.155-15.577-.282-3.121-.282 27.679m-1.634 57.456c-.613 1.759-17.361 3.94-35.435 4.615-16.172.603-46.152-.532-59.238-2.243-2.563-.336-4.435-.367-4.16-.07s6.444 1.26 13.708 2.141c17.227 2.088 57.06 2.161 69.792.128 15.43-2.465 16.5-2.734 16.5-4.158 0-1.577-.677-1.817-1.167-.413M212.2 750.2c-.904.904-1.2 14.573-1.2 55.378 0 46.852.202 54.345 1.495 55.418 1.145.95 8.327 1.124 30.75.742 25.103-.427 30.195-.775 35.878-2.448 14.152-4.168 22.195-10.889 28.375-23.712 4.993-10.358 6.502-17.245 6.502-29.674 0-17.772-4.803-32.151-14.159-42.388-5.258-5.753-14.224-11.024-20.341-11.958-3.506-.536-3.319-.383 1.515 1.235 8.913 2.982 16.237 8.289 21.218 15.375 5.518 7.848 7.347 12.484 9.264 23.476 3.889 22.301-.696 42.285-12.587 54.857-2.937 3.106-7.485 6.572-10.486 7.992-9.676 4.577-15.862 5.335-45.424 5.565-15.125.117-28.066.153-28.759.078-.997-.108-1.205-11.474-1-54.886l.259-54.75 27.5-.524 27.5-.524-27.55-.226c-20.354-.167-27.863.087-28.75.974m123.467-.533c-.367.366-.667 25.805-.667 56.53v55.865l12.25-.281 12.25-.281.269-23.371.268-23.372 8.885.425c7.447.356 9.516.842 12.78 3.002 3.649 2.415 12.651 13.538 22.107 27.316 2.265 3.3 5.84 8.25 7.944 11l3.827 5 13.38.28c7.359.154 13.751-.091 14.205-.545.821-.821-12.686-21.565-21.489-33.006-2.531-3.289-6.981-7.92-9.889-10.291a1521 1521 0 0 1-6.118-5.005c-.457-.382 1.963-1.638 5.377-2.791 8.072-2.726 15.461-7.522 18.516-12.018 3.516-5.174 3.007-6.21-.603-1.226-3.514 4.851-9.992 9.241-17.91 12.14a1510 1510 0 0 0-7.049 2.594c-1.145.43-.795 1.072 1.48 2.715 7.94 5.736 15.991 14.805 25.376 28.586 5.576 8.189 10.373 15.499 10.659 16.246.426 1.109-1.804 1.304-12.174 1.065-7.606-.176-13.247-.751-14.07-1.434-.756-.628-6.189-7.876-12.073-16.108-18.329-25.642-20.512-27.575-32.542-28.809-4.486-.461-8.935-.597-9.888-.303-1.566.482-1.757 2.738-2 23.646l-.268 23.113-11 .075-11 .076v-110l32-.521 32-.521-32.083-.229c-17.646-.126-32.384.071-32.75.438m123.543.523c-.917.917-1.21 14.228-1.21 54.928 0 29.545.273 54.43.607 55.3.541 1.411 5.574 1.582 46.5 1.582H551v-9.5c0-5.225-.337-9.501-.75-9.502-.413 0-.75 3.895-.75 8.656v8.657l-43 .111c-23.65.061-43.788-.061-44.75-.272-1.641-.359-1.75-3.81-1.75-55.277v-54.894l43.75.26 43.75.261.29 8.25.291 8.25h-31.918c-26.049 0-32.131.256-33.073 1.392-.769.926-1.061 5.362-.873 13.25l.283 11.858 30.25.265 30.25.264v16.942l-30.25.264-30.25.265-.275 15.75c-.152 8.663.073 15.75.5 15.75.426.001.775-6.862.775-15.25V812.5l30.287-.265 30.288-.264-.288-9.236-.287-9.235-29.707-.265-29.708-.265-.676-3.605c-.602-3.205.188-19.295.985-20.093.173-.172 14.328-.389 31.457-.482s31.613-.459 32.188-.814c.636-.393.93-4.128.752-9.561l-.291-8.915-44.04-.26c-33.42-.198-44.331.031-45.25.95m147.934.137c-1.499 1.805-4.365 8.785-3.828 9.322.238.238 1.502-1.723 2.808-4.358l2.376-4.791 11.602-.28c8.858-.215 11.871.042 12.736 1.085.624.752 3.773 7.639 6.998 15.305 5.789 13.762 9.046 20.596 9.124 19.146.056-1.051-14.09-33.989-15.249-35.506-1.391-1.82-25.05-1.751-26.567.077m89.056-.127c-1.404 1.404-1.746 108.392-.353 110.587.601.946 3.573 1.211 11.235 1l10.418-.287.5-43 .5-43 1.882 7c1.036 3.85 2.44 8.8 3.121 11s1.798 6.387 2.481 9.304 1.446 5.099 1.696 4.849c.479-.478-4.635-21.373-6.871-28.076-.72-2.158-1.867-4.107-2.548-4.33-.97-.318-1.296 8.9-1.5 42.423l-.261 42.83-7.997.297c-4.398.163-9.01.042-10.25-.27l-2.253-.565v-54.374c0-48.66.166-54.438 1.582-54.981 2.255-.866 31.705-.724 32.975.158.581.404 4.987 14.685 9.792 31.735 8.45 29.99 11.399 39.239 10.042 31.5-.338-1.925-2.76-10.7-5.384-19.5s-6.404-22.035-8.401-29.412-4.129-14.014-4.74-14.75c-1.506-1.815-33.864-1.94-35.666-.138m78.775 1.365c-.536 1.411-.941 3.323-.899 4.25s.645.11 1.339-1.815l1.263-3.5H811.5l.259 54.729.258 54.729-2.618.657c-2.935.736-17.247-.13-18.22-1.103-.345-.345-.639-19.164-.653-41.819-.017-26.541-.382-41.316-1.026-41.54-1.08-.374-5.325 11.063-5.325 14.347 0 1.1 1.039-1.15 2.309-5 2.298-6.967 2.31-6.981 2.554-3 .135 2.2.299 20.52.365 40.711.08 24.707.471 37.063 1.195 37.787.669.669 5.011.967 11.489.789l10.413-.287.259-55.436c.203-43.686-.009-55.605-1-56.234-.693-.44-9.033-.806-18.534-.815L775.95 749zm-504.725-.876c.962.252 2.538.252 3.5 0 .962-.251.175-.457-1.75-.457s-2.712.206-1.75.457m132 0c.962.252 2.538.252 3.5 0 .962-.251.175-.457-1.75-.457s-2.712.206-1.75.457m9.75 1.739c9.466 2.627 15.317 7.541 19.136 16.072 2.342 5.232 3.027 13.835 1.631 20.5-.627 2.997-.559 3.212.474 1.5.68-1.128 1.198-5.49 1.188-10-.02-8.468-1.583-12.901-7.173-20.354-2.783-3.709-13.242-9.198-17.256-9.056-1.754.062-1.156.462 2 1.338m359.99 9.721c-.627 2.393-2.194 7.951-3.481 12.351s-4.939 17.337-8.115 28.75-6.105 20.75-6.506 20.75-1.033-1.382-1.404-3.072c-.371-1.689-.901-2.844-1.179-2.567-.921.922 1.864 7.749 3.006 7.369.617-.206 1.874-3.042 2.793-6.302 13.292-47.148 16.939-60.719 16.448-61.209-.231-.232-.934 1.537-1.562 3.93m-174.427 9.914c-2.606 6.102-4.528 11.306-4.271 11.562s2.572-4.553 5.146-10.687c2.573-6.135 4.495-11.338 4.27-11.563-.224-.225-2.54 4.585-5.145 10.688m-361.813-4.512c-.412.43-.75 17.582-.75 38.116s.338 37.333.75 37.333c.412.001.627-16.638.476-36.975l-.274-36.975 2.678-.672c4.244-1.065 27.352.401 33.006 2.094 5.917 1.772 10.343 5.826 13.619 12.473 2.075 4.209 2.245 5.92 2.245 22.555 0 17.334-.097 18.207-2.622 23.591-2.614 5.574-5.771 8.578-12.06 11.478l-3.318 1.53 3-.627c12.218-2.556 18.684-18.656 17.017-42.376-.796-11.336-3.298-18.536-8.308-23.908-5.711-6.125-10.159-7.352-28.709-7.926-8.8-.272-16.338-.142-16.75.289m123.728.645c-.295.77-.411 7.679-.258 15.352l.28 13.952 9 .066 9 .065-8.75-.354-8.75-.355v-27.884l2.67-.67c4.552-1.142 35.954.448 39.694 2.011 4.761 1.989 6.605 5.126 6.816 11.594l.18 5.527.381-4.896c.494-6.359-1.119-10.053-5.609-12.845-3.4-2.115-4.927-2.282-23.874-2.612-16.669-.29-20.337-.105-20.78 1.049M618.2 777.2c-.66.66-1.2 1.565-1.2 2.012s-3.163 8.773-7.029 18.503c-3.866 9.729-6.806 18.274-6.532 18.987.381.991 4.392 1.298 16.971 1.298 9.059 0 16.69-.352 16.956-.783.756-1.223-15.592-41.217-16.848-41.217-.615 0-1.658.54-2.318 1.2m-.018 2.55c-.557 1.513-3.976 10.35-7.597 19.638S604 816.439 604 816.638s7.2.362 16 .362c10.956 0 16-.346 16-1.098 0-.605-3.198-9.042-7.106-18.75l-7.607-18.902c-.812-2.026-2.02-1.443-3.105 1.5m-29.961 14.486c-2.246 5.095-7.092 16.464-10.769 25.264-3.676 8.8-9.068 21.618-11.983 28.484-2.914 6.865-5.085 12.828-4.825 13.25.261.421 5.844.766 12.407.766 10.298 0 12.082-.241 13.029-1.757.603-.966 2.973-6.703 5.267-12.75l4.169-10.993h49.568l2.326 5.5c1.279 3.025 3.639 8.65 5.246 12.5l2.92 7 12.712.28c11.691.257 12.712.135 12.712-1.525 0-1.478-12.088-30.201-20.73-49.255-1.122-2.475-3.739-8.55-5.816-13.5-3.945-9.405-6.571-13.874-4.107-6.99.786 2.194 3.334 8.265 5.663 13.49s6.377 14.45 8.995 20.5c2.619 6.05 7.064 16.272 9.878 22.716S680 859.351 680 859.864c0 1.191-22.824.743-23.916-.469-.64-.71-4.713-10.329-9.802-23.145-.378-.954-6.478-1.25-25.75-1.25h-25.255l-3.001 7.25c-1.651 3.987-3.816 9.432-4.812 12.098s-2.295 5.007-2.887 5.203c-2.379.783-22.579.892-22.578.121.001-.772 5.43-13.75 23.661-56.557 4.072-9.561 7.233-17.555 7.024-17.764s-2.217 3.79-4.463 8.885m-181.396-3.799c-.921 1.232-3.171 2.978-5 3.879s-2.719 1.649-1.979 1.661c2.025.035 6.655-2.949 8.055-5.191 1.741-2.788.941-3.047-1.076-.349M779.2 807.728c-4.974 17.971-6.069 23.355-2.699 13.272 3.101-9.278 7.736-27.096 7.191-27.641-.221-.222-2.243 6.244-4.492 14.369m-385.95-11.039c.962.252 2.538.252 3.5 0 .962-.251.175-.457-1.75-.457s-2.712.206-1.75.457M728.363 811c.354 1.375 1.983 7.45 3.62 13.5 1.636 6.05 3.944 14.728 5.128 19.285 1.183 4.557 2.364 8.073 2.624 7.813.809-.809-9.987-41.241-11.344-42.483-.37-.338-.382.51-.028 1.885m42.237 28.248c-1.501 5.639-3.412 12.629-4.245 15.534l-1.516 5.282-11.082-.282-11.082-.282-1.262-3.5c-.693-1.925-1.295-2.923-1.337-2.218s.576 2.843 1.373 4.75l1.449 3.468h11.016c9.475 0 11.144-.245 11.932-1.75 1.235-2.358 8.385-30.352 7.882-30.856-.22-.219-1.627 4.215-3.128 9.854m-506.838 3.459c1.244.239 3.044.23 4-.02s-.062-.446-2.262-.435-2.982.216-1.738.455m20.047 41.043c-.17.413-.05 7.95.267 16.75l.575 16-.075-15.751-.076-15.752h2.5c2.437 0 2.5.183 2.5 7.251v7.252l4 .086 4 .085-3.75-.393-3.75-.393v-6.442c0-6.359.036-6.443 2.75-6.457 1.512-.007 3.875-.271 5.25-.586 1.733-.398 2.091-.283 1.166.374-1.087.772-1.047 1.058.218 1.543 1.886.724 2.84-.569 2.012-2.727-.49-1.277-2.248-1.59-8.944-1.59-4.584 0-8.473.337-8.643.75m173.114 2.173c-2.143 2.143-2.892 3.811-2.808 6.25l.115 3.327.692-3.534c.381-1.944 1.031-4.081 1.444-4.75 1.283-2.076 2.38-1.338 1.882 1.266-.874 4.571.83 7.811 7.983 15.188 3.909 4.032 7.44 7.33 7.846 7.33.407 0 2.796 1.998 5.309 4.441s4.82 4.034 5.127 3.538c.307-.497-1.258-2.105-3.477-3.574-2.22-1.469-4.036-2.822-4.036-3.007s.936-2.133 2.081-4.328c1.144-2.196 1.927-4.797 1.74-5.781-.36-1.886-4.821-3.172-4.821-1.39 0 .571.671.781 1.492.466 2.281-.875 2.844 2.085 1.055 5.545-1.892 3.658-2.523 3.933-1.925.84l.434-2.25-.996 2.25c-.547 1.237-1.418 2.25-1.934 2.25-1.592 0-14.122-14.134-14.75-16.639-1.672-6.661 3.305-10.451 8.591-6.543 2.964 2.191 4.033 1.958 4.033-.878 0-2.181-1.978-2.94-7.659-2.94-3.635 0-5.054.559-7.418 2.923M506 900.83c0 15.734.203 18.034 1.643 18.587.904.346 1.868.405 2.143.13s-.239-.784-1.143-1.13c-1.432-.55-1.643-2.74-1.643-17.024V885h2.456c2.349 0 2.473.318 2.825 7.25l.368 7.25-.074-8-.075-8-3.25-.313-3.25-.314zm24.89-17.08c-.51 3.498-.228 14.952.36 14.591.413-.252.75-3.357.75-6.9 0-5.821.197-6.441 2.045-6.441 1.992 0 2.037.444 1.75 17.374-.192 11.291.055 17.24.705 16.99.631-.242.892-7.028.706-18.374l-.293-17.99h-2.957c-1.626 0-3.005.337-3.066.75m-62.463 1.771c1.06.802 2.172 1.214 2.471.914.628-.627-1.912-2.412-3.398-2.388-.55.009-.133.673.927 1.474M311.658 899.25c2.492 5.638 5.351 12.113 6.354 14.39 3.328 7.56 3.86 7.181 10.029-7.14 2.369-5.5 4.904-10.888 5.633-11.973 1.76-2.617 1.686-5.527-.139-5.527-1.705 0-3.868 3.561-3.223 5.305.243.657.771-.042 1.173-1.555.403-1.513 1.181-2.75 1.73-2.75 1.102 0 1.139-.119-2.753 8.775-1.51 3.451-2.933 6.088-3.162 5.858-.23-.229.29-2.11 1.155-4.178 2.883-6.901.901-4.587-2.322 2.711-1.82 4.12-3.537 6.794-4.02 6.262-1.134-1.248-7.113-17.229-7.113-19.013 0-.98-1.21-1.415-3.937-1.415h-3.936zM343 903.96V919l2.75-.136c2.358-.117 2.429-.198.5-.57-2.205-.424-2.25-.712-2.25-14.364 0-13.779.024-13.93 2.25-13.93 2.132-.001 2.242.364 2.098 6.936-.083 3.815-.386 7.316-.673 7.78-1.075 1.74.043 11.493 1.424 12.413.77.514 3.293.806 5.605.649 5.583-.379 4.057.978-1.704 1.515-3.856.358-3.714.403.991.313 4.457-.086 5.555-.447 5.835-1.917.297-1.564-.134-1.722-3.154-1.155-6.29 1.18-7.672.081-7.672-6.101V905h5.073c4.299 0 5.02-.267 4.722-1.75-.286-1.43-1.215-1.689-5.073-1.417l-4.722.332v-10.313l5.25.278c4.055.216 5.25-.052 5.25-1.175 0-1.132-1.831-1.519-8.25-1.745l-8.25-.291zm25.609-14.137c-.89 1.441-.858 28.328.035 29.219.475.474.797-5.584.724-13.594-.073-7.946.16-14.448.519-14.448.358 0 5.134 4.5 10.613 10s10.789 10 11.798 10c1.709 0 1.787-.725 1.132-10.5-.508-7.586-.388-10.5.434-10.5.794 0 1.136 4.213 1.136 14 0 7.7-.313 14-.695 14-.383 0-5.57-4.803-11.527-10.673-7.963-7.847-11.126-10.379-11.946-9.559-.811.811-.829 3.916-.066 11.423l1.048 10.309-.192-10.25c-.106-5.638.023-10.25.286-10.25s5.051 4.5 10.64 10c9.74 9.585 11.717 10.998 12.843 9.177.28-.453.582-7.091.672-14.75.16-13.669.122-13.933-2.052-14.26-2.188-.329-2.211-.202-1.841 10.25.206 5.821.131 10.583-.166 10.583s-5.249-4.725-11.004-10.5-10.783-10.5-11.173-10.5-.938.371-1.218.823M403 890.5c0 1.152 1.278 1.5 5.5 1.5h5.5v27h6v-27.148l5.245.278c4.283.227 5.305-.034 5.573-1.426.297-1.54-1.024-1.704-13.745-1.704-11.843 0-14.073.238-14.073 1.5m150.299.459c-3.377 2.06-6.353 6.72-6.22 9.741.048 1.085.496.608 1.127-1.2 1.109-3.174 4.565-7.5 5.991-7.5.467 0 .197 1.013-.6 2.25-3.857 5.988-2.606 16.071 2.596 20.93 2.086 1.949 2.533 2.82 1.448 2.82-2.513 0-8.553-5.916-9.549-9.352-.593-2.048-.942-2.449-.998-1.148-.289 6.689 9.347 13.2 18.017 12.173 8.479-1.004 13.002-4.521 14.371-11.173.597-2.904.566-2.889-.977.47-1.72 3.745-4.337 7.03-5.601 7.03-.432 0-.14-1.237.649-2.75 2.119-4.061 1.848-13.081-.509-16.946-2.593-4.252-5.523-5.949-11.544-6.686-3.953-.484-5.67-.203-8.201 1.341m18.574.207c3.203 1.586 4.869 3.257 6.228 6.249 1.02 2.247 1.865 3.5 1.877 2.785.071-4.18-6.426-11.201-10.363-11.199-1.459 0-.758.672 2.258 2.165M588 904c0 8.25.337 15.001.75 15.002.413 0 .614-6.525.449-14.5-.292-14.054-.238-14.502 1.75-14.502 1.962 0 2.051.559 2.051 12.878 0 14.816.356 15.534 7.43 14.971 5.17-.411 4.802.805-.43 1.42l-3.5.411 3.559.16c3.858.173 7.645-1.891 6.593-3.594-.448-.724-1.679-.747-3.903-.071-2.193.666-4.143.644-5.999-.069L594 915.05V889h-6zm26.224.25.276 15.25h5l.276-15.25.276-15.25h-6.104zm18.776-.309c0 8.218.337 15.15.75 15.406s.605-6.242.428-14.441L633.856 890l2.322-.001c2.303-.002 2.321.097 2.237 11.75l-.085 11.751.585-11 .585-11 4.358.28c9.372.603 13.69 5.599 12.915 14.943-.582 7.017-2.868 9.388-9.684 10.043-3.258.313-5.618.04-6.584-.762-1.082-.898-1.505-.925-1.505-.095 0 .635.788 1.471 1.75 1.859 1.325.533.901.858-1.75 1.337-2.871.518-2.422.654 2.5.758 14.673.308 22.24-5.928 21.277-17.534-.805-9.707-6.442-13.329-20.745-13.329H633zm45.317-13.274c-.377 1.008-3.235 7.773-6.351 15.033-4.489 10.458-5.367 13.316-4.226 13.754 1.949.748 3.285-.213 3.144-2.263-.105-1.525-.161-1.519-.573.059-.252.962-.875 1.75-1.384 1.75-1.218 0-1.277.274 1.441-6.664 2.363-6.03 5.402-11.827 4.239-8.086-.988 3.176.415 4.749 4.25 4.765 4.694.02 5.568.667 7.252 5.37 1.461 4.082 5.164 6.742 6.929 4.977 1.148-1.148-10.931-29.493-12.84-30.129-.658-.22-1.505.426-1.881 1.434m16.683-.698c0 .533 2.25 4.416 5 8.628 4.663 7.144 5 8.085 5 13.972 0 3.472.357 6.534.793 6.803s.617-2.516.402-6.191c-.382-6.515-3.056-12.853-8.83-20.931-1.521-2.127-1.496-2.25.464-2.25 1.515 0 3.065 1.773 5.754 6.582 2.024 3.62 4.192 6.778 4.816 7.018 1.229.471 1.382 13.327.182 15.27-.433.699-.114.888.867.512 1.193-.458 1.552-2.175 1.552-7.417 0-6.042.41-7.51 3.587-12.843 1.973-3.312 4.223-6.549 5-7.194 2.122-1.761 1.707-2.928-1.04-2.928-1.955 0-2.868.937-4.492 4.609-1.121 2.534-1.748 5.079-1.392 5.654.363.588.168.75-.447.37-.601-.371-1.545.122-2.098 1.096-.892 1.572-1.169 1.602-2.462.271-.801-.825-2.674-3.862-4.161-6.75-2.319-4.502-3.117-5.25-5.6-5.25-1.592 0-2.895.436-2.895.969m33.36 1.58c-4.608 4.608-3.25 7.429 8.39 17.444 2.584 2.223 2.811 3.857.899 6.472-1.661 2.272-7.115 2.328-9.578.099-2.292-2.074-3.071-1.972-3.071.401 0 2.494 2.857 4.035 7.484 4.035 4.865 0 8.978-2.286 10.433-5.799 2.196-5.301-.06-9.046-9.334-15.498-2.886-2.007-3.345-4.826-1.092-6.695 1.335-1.108 4.112-1.078 8.509.093.825.219 1.5-.229 1.5-.996 0-1.006-1.643-1.468-5.89-1.656-5.053-.223-6.224.075-8.25 2.1m-414.695 9.201c2.498 5.913 4.989 11.987 5.536 13.5 1.17 3.236 2.334 3.488 3.764.816 1.357-2.536 1.315-4.127-.102-3.816-1.068.235-8.824-17.292-8.851-20-.006-.687-1.109-1.25-2.45-1.25h-2.438zm91.604-10.057c.973.254 2.323.237 3-.037s-.119-.481-1.769-.461-2.204.244-1.231.498m9.534 13.305c.28 12.969.442 14.002 2.197 14.002s1.917-1.033 2.197-14.002l.303-14.001h-5zM615 904.5c0 13.833.092 14.5 2 14.5s2-.667 2-14.5-.092-14.5-2-14.5-2 .667-2 14.5m35.684-12.557c2.507 1.139 4.811 3.114 5.75 4.929 2.24 4.333 2.02 12.871-.437 16.9l-1.995 3.273 2.55-1.671c5.256-3.444 7.107-12.265 3.882-18.502-1.599-3.092-8.129-6.828-11.934-6.828-1.234 0-.397.728 2.184 1.899m27.906 1.156c-1.268 2.993-1.261 3.441.058 3.738 1.862.42 5.491 8.636 4.712 10.668-.316.822-.085 1.495.514 1.495.598 0 2.109 2.138 3.357 4.75s3.066 4.897 4.041 5.077c1.568.29 1.469-.342-.862-5.5-1.448-3.205-4.136-9.592-5.972-14.194s-3.579-8.608-3.873-8.902-1.183.997-1.975 2.868m36.166 1.161-1.744 4.24 2.022-2.5c3.364-4.158 4.211-6.001 2.751-5.99-.707.006-2.07 1.918-3.029 4.25m-159.337-2.508c.276.276-.156 1.772-.959 3.325S553 900.195 553 903c0 8.931 4.181 14 11.548 14 6.988 0 10.453-5.836 9.044-15.234-.354-2.364-1.715-5.642-3.023-7.283-2.186-2.741-2.916-2.993-9.015-3.107-3.65-.069-6.411.101-6.135.376m173.236 1.077c-3.301 3.648-1.638 7.897 4.638 11.85 5.763 3.629 6.837 5.215 6.262 9.252-.418 2.939-.29 3.226.897 2 .762-.787 1.513-2.331 1.669-3.431.623-4.378-1.117-7.214-6.702-10.922-5.256-3.491-5.594-3.953-5.22-7.155.22-1.883.335-3.423.255-3.423-.079 0-.889.823-1.799 1.829m-273.519 4.247c-.075.866-1.262 2.633-2.638 3.925-3.352 3.15-4.817 8.564-3.217 11.891 3.106 6.457 12.632 8.976 19.912 5.265 2.508-1.279 4.127-1.558 5.285-.909 2.765 1.547 7.621 2.721 6.982 1.688-.318-.515-1.079-.936-1.691-.936-3.171 0-8.96-4.201-14.762-10.713-3.571-4.008-7.027-7.287-7.68-7.287s-1.383-1.013-1.621-2.25c-.239-1.237-.495-1.541-.57-.674m222.022 4.79c-1.571 5.246-1.624 5.134 2.449 5.134 3.039 0 3.495-.276 2.898-1.75a158 158 0 0 1-1.705-4.5c-1.354-3.739-2.271-3.458-3.642 1.116M299.5 900c.384.621-1.49 1-4.941 1H289v7.465c0 6.608.246 7.596 2.144 8.612 1.179.631 3.934.908 6.121.614 2.236-.3 3.596-.155 3.106.331-.479.475-3.346 1.031-6.371 1.236l-5.5.372 6.05.185c3.611.11 6.534-.299 7.25-1.015 2.467-2.467 1.166-3.32-5.05-3.31l-6.25.01-.297-6.827-.298-6.826 5.293.281c4.329.229 5.352-.03 5.62-1.424.181-.937-.181-1.704-.804-1.704-.622 0-.854.45-.514 1m213.824-.249c-1.288.849-2.359 20.397-1.074 19.598.413-.257.75-4.508.75-9.447v-8.98l8.75.289 8.75.289-.025 8.75c-.015 5.324.376 8.751 1 8.752 1.136.003.858-17.061-.295-18.135-1.08-1.006-16.555-1.973-17.856-1.116m-58.882 1.014c-2.227 1.547-4.442 5.797-4.442 8.523 0 6.083 4.714 9.793 12.2 9.602l4.3-.109-4.487-.879c-4.499-.881-7.961-3.877-7.976-6.902-.004-.825.562-.375 1.257 1 1.973 3.901 6.165 5.479 10.839 4.078 2.127-.637 3.867-1.516 3.867-1.954 0-.757-13.425-14.141-14.153-14.109-.191.009-.823.346-1.405.75m217.72 10.778c-1.675 3.677-1.355 4.462.456 1.119.846-1.562 1.351-3.026 1.123-3.255-.229-.228-.939.733-1.579 2.136m54.99 6.002c.908.928 2.197 1.505 2.863 1.283.667-.222-.077-.981-1.652-1.687-2.68-1.201-2.757-1.175-1.211.404"/></svg>